<?xml version="1.0" encoding="UTF-8"?>
<svg xmlns="http://www.w3.org/2000/svg" xmlns:xlink="http://www.w3.org/1999/xlink" width="2000pt" height="2000pt" viewBox="0 0 2000 2000" version="1.1">
<g id="surface1">
<path style=" stroke:none;fill-rule:nonzero;fill:rgb(49%,49%,49%);fill-opacity:1;" d="M 1000 1605.9375 L 0 791.667969 L 1000 0 Z M 1000 1605.9375 "/>
<path style=" stroke:none;fill-rule:nonzero;fill:rgb(39%,39%,39%);fill-opacity:1;" d="M 1000 1605.9375 L 2000 791.667969 L 1000 0 Z M 1000 1605.9375 "/>
<path style=" stroke:none;fill-rule:nonzero;fill:rgb(75%,75%,75%);fill-opacity:1;" d="M 1583.332031 1416.667969 C 1583.332031 1738.832031 1322.164062 2000 1000 2000 C 677.835938 2000 416.667969 1738.832031 416.667969 1416.667969 C 416.667969 1094.503906 677.835938 833.335938 1000 833.335938 C 1322.164062 833.335938 1583.332031 1094.503906 1583.332031 1416.667969 Z M 1583.332031 1416.667969 "/>
<path style=" stroke:none;fill-rule:nonzero;fill:rgb(63%,63%,63%);fill-opacity:1;" d="M 472.800781 1166.667969 C 566.425781 969.585938 767.300781 833.332031 1000 833.332031 C 1232.699219 833.332031 1433.574219 969.585938 1527.199219 1166.667969 Z M 472.800781 1166.667969 "/>
</g>
</svg>
